<svg xmlns="http://www.w3.org/2000/svg" xmlns:xlink="http://www.w3.org/1999/xlink" width="2515.684" height="1596.588" viewBox="0 0 2515.684 1596.588">
  <defs>
    <clipPath id="clip-path">
      <rect id="Rectangle_38" data-name="Rectangle 38" width="2332.593" height="992.069" fill="#151515" stroke="#707070" stroke-width="1"/>
    </clipPath>
  </defs>
  <g id="Mask_Group_2" data-name="Mask Group 2" transform="translate(273.451) rotate(16)" opacity="0.03" clip-path="url(#clip-path)">
    <g id="signature" transform="translate(553.798 0)">
      <g id="Group_142" data-name="Group 142" transform="translate(0)">
        <g id="Group_31" data-name="Group 31" transform="translate(141.826 587.218)">
          <g id="Group_30" data-name="Group 30" transform="translate(0 0)">
            <path id="Path_839" data-name="Path 839" d="M57.868,4.071Q29.62,50.578,1.314,97.084c-5.8,9.474,9.129,18.143,14.871,8.67Q44.433,59.248,72.739,12.741c5.8-9.473-9.072-18.085-14.871-8.67Z" fill="rgba(10,10,10,0.87)"/>
          </g>
        </g>
        <g id="Group_33" data-name="Group 33" transform="translate(0 0)">
          <g id="Group_32" data-name="Group 32" transform="translate(0 0)">
            <path id="Path_840" data-name="Path 840" d="M67.351,405.607c57.817-117.414,143.825-219.728,250.216-296.091a798.923,798.923,0,0,1,74.18-47.31q19.205-10.765,38.928-20.5c9.014-4.421,44.726-27.272,54.257-24.057,25.378,8.612-80.783,166.849-93.07,186.485-34.162,54.717-64.42,117.242-63.042,183.27,1.206,58.334,31.578,103.06,68.152,145.835,49.147,57.358,88.649,111.845,74.64,191.824C459.5,794.538,417.641,858.728,365.68,905.292c-56.5,50.64-134.409,84.458-210.944,66.716C86.412,956.219,27.677,904.775,16.71,833.753c-1.665-10.909-18.258-6.258-16.593,4.593,20.21,131.022,173.05,182.81,285.3,137.8C405.3,928.086,517.716,781.16,487.458,646.981c-15.789-70.1-75.673-112.993-113.051-170.581-53.626-82.678-19.923-178.16,27.157-255.211,21.359-34.966,45.243-68.324,65.855-103.749C482.75,91.2,505.773,55.259,507.381,23.91c1.32-26.067-15.5-27.674-35.253-19.636a811.294,811.294,0,0,0-92.9,45.243C238.62,129.669,123.962,251.792,52.48,396.88c-4.88,9.933,9.99,18.66,14.871,8.727Z" fill="rgba(10,10,10,0.87)"/>
          </g>
        </g>
        <g id="Group_35" data-name="Group 35" transform="translate(515.353 257.8)">
          <g id="Group_34" data-name="Group 34" transform="translate(0 0)">
            <path id="Path_841" data-name="Path 841" d="M17.121,490.234,40.2,424.608H23.609q3.272,16.88,6.545,33.76c1.378,7,9.818,7.464,14.411,3.789A775.847,775.847,0,0,0,321.192,10.931c1.895-9.186-10.737-15.559-15.732-6.66A1554.452,1554.452,0,0,0,157.845,367.824c-1.78,6.6,4.248,11.942,10.622,10.622,69.644-14.756,109.376-77.913,142.045-135.73-4.938-2.871-9.933-5.8-14.87-8.67A508.85,508.85,0,0,0,256.2,333.318c-2.124,7.694,6.144,12.861,12.631,9.7a623.363,623.363,0,0,0,116.438-73.032c-4.823-2.813-9.589-5.569-14.412-8.383A1131.053,1131.053,0,0,1,199.012,602.021c5.225,2.239,10.507,4.421,15.732,6.66A723.283,723.283,0,0,1,483.792,238.353c-4.306-2.469-8.612-4.938-12.976-7.464-1.608,18.086-3.215,36.229-4.766,54.315-.689,7.981,9.589,10.622,14.7,6.086A2084.5,2084.5,0,0,1,705.759,116.23c9.129-6.143.516-21.071-8.669-14.87A2122.649,2122.649,0,0,0,468.634,279.118c4.88,2.01,9.818,4.076,14.7,6.086,1.608-18.086,3.215-36.229,4.765-54.315.574-6.258-7.808-11.081-12.976-7.464a742.864,742.864,0,0,0-277.029,380.72c-3.158,9.99,10.335,14.009,15.732,6.66A1144.1,1144.1,0,0,0,387.391,266.256c2.756-9.014-8.21-13.263-14.411-8.382a607.046,607.046,0,0,1-112.936,70.334c4.191,3.215,8.44,6.488,12.631,9.7A488.62,488.62,0,0,1,310.4,242.774c5.11-9.761-9.416-18.373-14.871-8.67C265.04,288.017,228.868,348.073,163.759,361.91l10.622,10.622A1538.436,1538.436,0,0,1,320.273,13.113c-5.225-2.239-10.507-4.421-15.732-6.66A760.9,760.9,0,0,1,32.336,450.043c4.823,1.263,9.588,2.526,14.411,3.789q-3.272-16.88-6.545-33.76c-1.722-9.014-14.009-7.349-16.593,0L.528,485.7c-3.675,10.45,12.918,14.985,16.593,4.536Z" transform="translate(0 0)" fill="rgba(10,10,10,0.87)"/>
          </g>
        </g>
        <g id="Group_37" data-name="Group 37" transform="translate(558.495 596.975)">
          <g id="Group_36" data-name="Group 36" transform="translate(0 0)">
            <path id="Path_842" data-name="Path 842" d="M8.311,17.225C19.392,17.225,19.392,0,8.311,0s-11.081,17.225,0,17.225Z" transform="translate(0 0)" fill="rgba(10,10,10,0.87)"/>
          </g>
        </g>
      </g>
    </g>
  </g>
</svg>
