<svg xmlns="http://www.w3.org/2000/svg" width="1379.9" height="1176.2">
  <g data-name="Group 142">
    <g data-name="Group 31">
      <g data-name="Group 30">
        <path data-name="Path 839" d="M302.4 623.4l-80 73.8c-8.2 7.6 3.8 20 12 12.5q39.9-37 80-73.8c8.1-7.5-3.8-20-12-12.5z" fill="#404040"/>
      </g>
    </g>
    <g data-name="Group 33">
      <g data-name="Group 32">
        <path data-name="Path 840" d="M226.4 408.5c88-97 198.8-171.6 322.1-215.7a799 799 0 0184.4-25q21.4-5 43-9c10-1.8 50.6-13.9 58.8-8.2 22 15.3-123.6 138.1-140.8 153.6-48 43.2-94.3 95-111.1 158.8-15 56.4 1.9 107.8 25.3 159 31.4 68.7 54.4 132 18.8 205-30.8 63.4-88.7 113.6-151.5 144-68.2 33.1-152.4 44.2-221.1 6-61.4-34-103.6-99.6-94.6-171 1.4-10.9-15.8-11-17.2-.1-16.7 131.5 116 223.4 236.2 211.1 128.5-13.2 277-123.4 285-260.7C567.8 684.5 522 626.8 502 561c-28.7-94.2 30-176.7 96.5-237.8 30.2-27.7 62.3-53.2 91.9-81.6 22-21 54-49.2 64.2-78.9 8.4-24.7-7.3-30.8-28.5-28.6a811.3 811.3 0 00-101.8 18A817 817 0 00214.5 396c-7.4 8.2 4.5 20.7 11.9 12.5z" fill="#404040"/>
      </g>
    </g>
    <g data-name="Group 35">
      <g data-name="Group 34">
        <path data-name="Path 841" d="M579.1 865.8l40.3-56.7-16-4.6-3 34.3c-.6 7.1 7.4 9.9 12.8 7.6a775.8 775.8 0 00390.3-357.5c4.4-8.3-6-18-13.3-10.7a1554.5 1554.5 0 00-242 308.7c-3.6 5.9.7 12.7 7.2 13.2 71 5 126.6-44.8 174-91.3l-12-12.5a508.9 508.9 0 00-65.2 84.6c-4.2 6.8 2.3 14 9.4 12.8a623.4 623.4 0 00132.1-38.1l-11.5-12a1131 1131 0 01-259 279.8l13.2 10.8a723.3 723.3 0 01360.7-281.9l-10.4-10.7-19.5 50.9c-2.9 7.5 6.3 12.8 12.4 9.9A2084.5 2084.5 0 011344.2 696c10.4-3.4 6.3-20-4.3-16.7a2122.6 2122.6 0 00-268.6 108l12.5 9.8 19.5-50.9c2.3-5.8-4.4-12.8-10.4-10.7a742.9 742.9 0 00-371.2 289.6c-5.8 8.7 6 16.3 13.3 10.7a1144.1 1144.1 0 00261.8-283.3c5.1-8-4.3-15-11.6-12a607 607 0 01-128 36.4l9.6 12.8a488.6 488.6 0 0162.4-81c7.6-8-4-20.3-11.9-12.4-44.1 43.4-95.5 91.1-161.9 86.5l7.3 13.1A1538.4 1538.4 0 011002 490.7L988.7 480a760.9 760.9 0 01-383.9 351.4l12.8 7.6 3-34.3c.9-9.1-11.4-10.9-16-4.5l-40.2 56.7c-6.4 9 8.3 18 14.7 9z" fill="#404040"/>
      </g>
    </g>
    <g data-name="Group 37">
      <g data-name="Group 36">
        <path data-name="Path 842" d="M649 746.6c10.7 3 15.4-13.5 4.8-16.5s-15.4 13.5-4.8 16.5z" fill="#404040"/>
      </g>
    </g>
  </g>
</svg>
